<svg xmlns="http://www.w3.org/2000/svg" viewBox="0 0 340 230" width="340" height="230" font-size="14" font-family="-apple-system, BlinkMacSystemFont, &quot;PingFang SC&quot;, &quot;Noto Sans SC&quot;, &quot;Microsoft YaHei&quot;, sans-serif" fill="none">
<path d="M 74 128 A 120 120 0 0 1 266 128" stroke="#1f2328" stroke-width="3" fill="none"/>
<line x1="74" y1="128" x2="266" y2="128" stroke="#1f2328" stroke-width="2"/>
<line x1="170" y1="80" x2="170" y2="128" stroke="#cd4b30" stroke-width="2.5"/>
<line x1="170" y1="128" x2="170" y2="200" stroke="#1f5fa8" stroke-width="1.5" stroke-dasharray="5 4"/>
<line x1="170" y1="200" x2="74" y2="128" stroke="#1f5fa8" stroke-width="1.5" stroke-dasharray="5 4"/>
<polyline points="180,128 180,118 170,118" stroke="#1f2328" stroke-width="1.2" fill="none"/>
<circle cx="74" cy="128" r="4" fill="#1f2328" stroke="none"/>
<circle cx="266" cy="128" r="4" fill="#1f2328" stroke="none"/>
<circle cx="170" cy="80" r="4" fill="#1f2328" stroke="none"/>
<circle cx="170" cy="128" r="4" fill="#1f2328" stroke="none"/>
<circle cx="170" cy="200" r="4" fill="#1f2328" stroke="none"/>
<text x="60" y="133" fill="#1f2328" stroke="none" text-anchor="middle" font-style="italic">A</text>
<text x="280" y="133" fill="#1f2328" stroke="none" text-anchor="middle" font-style="italic">B</text>
<text x="170" y="70" fill="#1f2328" stroke="none" text-anchor="middle" font-style="italic">C</text>
<text x="158" y="146" fill="#1f2328" stroke="none" text-anchor="middle" font-style="italic">D</text>
<text x="170" y="220" fill="#1f2328" stroke="none" text-anchor="middle" font-style="italic">O</text>
<text x="114" y="178" fill="#1f5fa8" stroke="none" text-anchor="middle" font-style="italic" font-size="15">r</text>
<text x="178" y="169" fill="#1f5fa8" stroke="none" font-size="13">r − 4</text>
<text x="122" y="121" fill="#57606a" stroke="none" text-anchor="middle" font-size="13">8</text>
</svg>
