<svg xmlns="http://www.w3.org/2000/svg" viewBox="0 0 490 245" width="490" height="245" font-size="14" font-family="-apple-system, BlinkMacSystemFont, &quot;PingFang SC&quot;, &quot;Noto Sans SC&quot;, &quot;Microsoft YaHei&quot;, sans-serif" fill="none">
<line x1="10" y1="220" x2="480" y2="220" stroke="#1f2328" stroke-width="1.5"/>
<polyline points="248,220 248,213 255,213 255,213 255,206 262,206 262,206 262,199 269,199 269,199 269,192 276,192 276,192 276,185 283,185 283,185 283,178 290,178 290,178 430,178 430,178 430,185 437,185 437,185 437,192 444,192 444,192 444,199 451,199 451,199 451,206 458,206 458,206 458,213 465,213 465,213 465,220 472,220 472,220" fill="none" stroke="#1f2328" stroke-width="1.5" stroke-linejoin="round" stroke-linecap="round"/>
<line x1="390" y1="20" x2="390" y2="178" stroke="#1f2328" stroke-width="2"/>
<line x1="62" y1="220" x2="62" y2="178" stroke="#1f2328" stroke-width="2"/>
<line x1="95" y1="220" x2="95" y2="162.1" stroke="#1f2328" stroke-width="2"/>
<line x1="390" y1="178" x2="390" y2="220" stroke="#1f2328" stroke-width="1.2" stroke-dasharray="4 3"/>
<line x1="62" y1="178" x2="390" y2="178" stroke="#1f2328" stroke-width="1.2" stroke-dasharray="4 3"/>
<line x1="62" y1="178" x2="390" y2="20" stroke="#1f2328" stroke-width="1.2" stroke-dasharray="4 3"/>
<line x1="95" y1="220" x2="390" y2="20" stroke="#1f2328" stroke-width="1.2" stroke-dasharray="4 3"/>
<line x1="30" y1="220" x2="95" y2="162.1" stroke="#1f2328" stroke-width="1.2" stroke-dasharray="4 3"/>
<polyline points="390,170 382,170 382,178" stroke="#1f2328" stroke-width="1.2" fill="none"/>
<text x="398" y="18" fill="#1f2328" stroke="none" text-anchor="middle" font-style="italic">A</text>
<text x="402" y="174" fill="#1f2328" stroke="none" text-anchor="middle" font-style="italic">B</text>
<text x="390" y="240" fill="#1f2328" stroke="none" text-anchor="middle" font-style="italic">C</text>
<text x="97" y="240" fill="#1f2328" stroke="none" text-anchor="middle" font-style="italic">D</text>
<text x="62" y="240" fill="#1f2328" stroke="none" text-anchor="middle" font-style="italic">M</text>
<text x="26" y="240" fill="#1f2328" stroke="none" text-anchor="middle" font-style="italic">F</text>
<text x="52" y="176" fill="#1f2328" stroke="none" text-anchor="middle" font-style="italic">N</text>
<text x="93" y="154.1" fill="#1f2328" stroke="none" text-anchor="middle" font-style="italic">E</text>
</svg>
