<svg xmlns="http://www.w3.org/2000/svg" viewBox="0 0 380 225" width="380" height="225" font-size="14" font-family="-apple-system, BlinkMacSystemFont, &quot;PingFang SC&quot;, &quot;Noto Sans SC&quot;, &quot;Microsoft YaHei&quot;, sans-serif" fill="none">
<line x1="20" y1="200" x2="360" y2="200" stroke="#1f2328" stroke-width="1.5"/>
<polygon points="250,120 330,120 330,200 250,200" fill="#d0d4d9" stroke="#1f2328" stroke-width="1.5" stroke-linejoin="round"/>
<polygon points="281,120 299,120 297,45 283,45" fill="#d0d4d9" stroke="#1f2328" stroke-width="1.5" stroke-linejoin="round"/>
<circle cx="290" cy="38" r="8" fill="#d0d4d9" stroke="#1f2328" stroke-width="1.5"/>
<line x1="30" y1="175" x2="290" y2="30" stroke="#1f2328" stroke-width="1.5" stroke-dasharray="5 4"/>
<line x1="30" y1="175" x2="290" y2="120" stroke="#1f2328" stroke-width="1.5" stroke-dasharray="5 4"/>
<line x1="30" y1="175" x2="340" y2="175" stroke="#1f2328" stroke-width="1.5" stroke-dasharray="5 4"/>
<circle cx="30" cy="175" r="3.5" fill="#1f2328" stroke="none"/>
<circle cx="290" cy="30" r="3.5" fill="#1f2328" stroke="none"/>
<circle cx="290" cy="120" r="3.5" fill="#1f2328" stroke="none"/>
<circle cx="290" cy="200" r="3.5" fill="#1f2328" stroke="none"/>
<path d="M 118.1 156.4 A 90 90 0 0 0 108.6 131.2" stroke="#1f2328" stroke-width="1.2" fill="none"/>
<text x="126" y="125" fill="#1f2328" stroke="none" font-size="13">视角</text>
<text x="278" y="30" fill="#1f2328" stroke="none" text-anchor="middle" font-style="italic">A</text>
<text x="310" y="118" fill="#1f2328" stroke="none" text-anchor="middle" font-style="italic">B</text>
<text x="290" y="220" fill="#1f2328" stroke="none" text-anchor="middle" font-style="italic">C</text>
<text x="18" y="183" fill="#1f2328" stroke="none" text-anchor="middle" font-style="italic">D</text>
<text x="350" y="180" fill="#1f2328" stroke="none" text-anchor="middle" font-style="italic">E</text>
</svg>
