<svg xmlns="http://www.w3.org/2000/svg" viewBox="0 0 470 260" width="470" height="260" font-size="14" font-family="-apple-system, BlinkMacSystemFont, &quot;PingFang SC&quot;, &quot;Noto Sans SC&quot;, &quot;Microsoft YaHei&quot;, sans-serif" fill="none">
<ellipse cx="55" cy="130" rx="32" ry="85" fill="none" stroke="#1f2328" stroke-width="1.5"/>
<ellipse cx="175" cy="130" rx="32" ry="85" fill="none" stroke="#1f2328" stroke-width="1.5"/>
<text x="55" y="32" fill="#57606a" stroke="none" text-anchor="middle" font-style="italic">x</text>
<text x="175" y="32" fill="#57606a" stroke="none" text-anchor="middle" font-style="italic">y</text>
<text x="55" y="78" fill="#1f2328" stroke="none" text-anchor="middle">−2</text>
<text x="55" y="116" fill="#1f2328" stroke="none" text-anchor="middle">−1</text>
<text x="55" y="154" fill="#1f2328" stroke="none" text-anchor="middle">1</text>
<text x="55" y="192" fill="#1f2328" stroke="none" text-anchor="middle">2</text>
<text x="175" y="116" fill="#1f2328" stroke="none" text-anchor="middle">1</text>
<text x="175" y="154" fill="#1f2328" stroke="none" text-anchor="middle">4</text>
<line x1="73" y1="73" x2="150.3" y2="143" stroke="#1f5fa8" stroke-width="1.5"/><polygon points="157,149 147.6,145.9 153,140" fill="#1f5fa8" stroke="none"/>
<line x1="73" y1="111" x2="148" y2="111" stroke="#1f5fa8" stroke-width="1.5"/><polygon points="157,111 148,115 148,107" fill="#1f5fa8" stroke="none"/>
<line x1="73" y1="149" x2="148.8" y2="114.7" stroke="#1f5fa8" stroke-width="1.5"/><polygon points="157,111 150.4,118.4 147.2,111.1" fill="#1f5fa8" stroke="none"/>
<line x1="73" y1="187" x2="148.8" y2="152.7" stroke="#1f5fa8" stroke-width="1.5"/><polygon points="157,149 150.4,156.4 147.2,149.1" fill="#1f5fa8" stroke="none"/>
<text x="115" y="245" fill="#1f5fa8" stroke="none" text-anchor="middle">是函数</text>
<ellipse cx="295" cy="130" rx="32" ry="85" fill="none" stroke="#1f2328" stroke-width="1.5"/>
<ellipse cx="415" cy="130" rx="32" ry="85" fill="none" stroke="#1f2328" stroke-width="1.5"/>
<text x="295" y="32" fill="#57606a" stroke="none" text-anchor="middle" font-style="italic">x</text>
<text x="415" y="32" fill="#57606a" stroke="none" text-anchor="middle" font-style="italic">y</text>
<text x="295" y="116" fill="#1f2328" stroke="none" text-anchor="middle">1</text>
<text x="295" y="154" fill="#1f2328" stroke="none" text-anchor="middle">4</text>
<text x="415" y="78" fill="#1f2328" stroke="none" text-anchor="middle">−2</text>
<text x="415" y="116" fill="#1f2328" stroke="none" text-anchor="middle">−1</text>
<text x="415" y="154" fill="#1f2328" stroke="none" text-anchor="middle">1</text>
<text x="415" y="192" fill="#1f2328" stroke="none" text-anchor="middle">2</text>
<line x1="313" y1="111" x2="388" y2="111" stroke="#cd4b30" stroke-width="1.5"/><polygon points="397,111 388,115 388,107" fill="#cd4b30" stroke="none"/>
<line x1="313" y1="111" x2="388.8" y2="145.3" stroke="#cd4b30" stroke-width="1.5"/><polygon points="397,149 387.2,148.9 390.4,141.6" fill="#cd4b30" stroke="none"/>
<line x1="313" y1="149" x2="390.3" y2="79" stroke="#cd4b30" stroke-width="1.5"/><polygon points="397,73 393,82 387.6,76.1" fill="#cd4b30" stroke="none"/>
<line x1="313" y1="149" x2="388.8" y2="183.3" stroke="#cd4b30" stroke-width="1.5"/><polygon points="397,187 387.2,186.9 390.4,179.6" fill="#cd4b30" stroke="none"/>
<text x="355" y="245" fill="#cd4b30" stroke="none" text-anchor="middle">不是函数</text>
</svg>
