<svg xmlns="http://www.w3.org/2000/svg" viewBox="0 0 360 245.41019662496848" width="360" height="245.41019662496848" font-size="14" font-family="-apple-system, BlinkMacSystemFont, &quot;PingFang SC&quot;, &quot;Noto Sans SC&quot;, &quot;Microsoft YaHei&quot;, sans-serif" fill="none">
<polygon points="215.4,215.4 330,215.4 330,30 215.4,30" fill="rgba(31,95,168,0.10)" stroke="none" stroke-width="0" stroke-linejoin="round"/>
<line x1="215.4" y1="144.6" x2="330" y2="144.6" stroke="#57606a" stroke-width="1" stroke-dasharray="4 3"/>
<line x1="259.2" y1="144.6" x2="259.2" y2="215.4" stroke="#57606a" stroke-width="1" stroke-dasharray="4 3"/>
<line x1="215.4" y1="171.6" x2="259.2" y2="171.6" stroke="#57606a" stroke-width="1" stroke-dasharray="4 3"/>
<line x1="242.5" y1="144.6" x2="242.5" y2="171.6" stroke="#57606a" stroke-width="1" stroke-dasharray="4 3"/>
<line x1="242.5" y1="161.3" x2="259.2" y2="161.3" stroke="#57606a" stroke-width="1" stroke-dasharray="4 3"/>
<polygon points="30,215.4 330,215.4 330,30 30,30" fill="none" stroke="#1f2328" stroke-width="2" stroke-linejoin="round"/>
<line x1="215.4" y1="215.4" x2="215.4" y2="30" stroke="#cd4b30" stroke-width="2"/>
<polygon points="215.4,215.4 330,215.4 330,30 215.4,30" fill="none" stroke="#1f5fa8" stroke-width="2.5" stroke-linejoin="round"/>
<text x="20" y="231.4" fill="#1f2328" stroke="none" text-anchor="middle" font-style="italic">A</text>
<text x="340" y="231.4" fill="#1f2328" stroke="none" text-anchor="middle" font-style="italic">B</text>
<text x="340" y="30" fill="#1f2328" stroke="none" text-anchor="middle" font-style="italic">C</text>
<text x="20" y="30" fill="#1f2328" stroke="none" text-anchor="middle" font-style="italic">D</text>
<text x="215.4" y="233.4" fill="#1f2328" stroke="none" text-anchor="middle" font-style="italic">E</text>
<text x="215.4" y="22" fill="#1f2328" stroke="none" text-anchor="middle" font-style="italic">F</text>
<text x="122.7" y="233.4" fill="#57606a" stroke="none" text-anchor="middle" font-style="italic">x</text>
<text x="272.7" y="233.4" fill="#57606a" stroke="none" text-anchor="middle">1 − x</text>
<text x="22" y="127.7" fill="#57606a" stroke="none" text-anchor="end" font-style="italic">x</text>
</svg>
